# Alias OBJ Model File
# Exported from SketchUp, (c) 2000-2012 Trimble Navigation Limited
# File units = meters

mtllib blue_arrow.mtl

g Mesh1 Model

usemtl _4
v -0.0782412 0.047625 -9.48361e-05
vt -3.08036 0.00373371
vn 0 1 -0
v 0 0.047625 -4.74608e-05
vt 0 0.00186853
v 0 0.047625 -9.48361e-05
vt 0 0.00373371
f 1/1/1 2/2/1 3/3/1

usemtl BackColor
vn -0 -1 0
f 3/3/2 2/2/2 1/1/2

usemtl _4
v 0.0783822 0.047625 -0
vt 3.08592 0
v 0.0783822 0.047625 -0.526496
vt 3.08592 20.7282
v 0.157338 0.047625 -0.526496
vt 6.1944 20.7282
v 3.68033e-05 0.047625 -0.747661
vt 0.00144895 29.4355
v -0.157197 0.047625 -0.526591
vt -6.18884 20.7319
v -0.0782412 0.047625 -0.526591
vt -3.08036 20.7319
f 3/3/1 2/2/1 4/4/1 5/5/1 6/6/1 7/7/1 8/8/1 9/9/1 1/1/1 

usemtl BackColor
f 1/1/2 9/9/2 8/8/2 7/7/2 6/6/2 5/5/2 4/4/2 2/2/2 3/3/2 

usemtl _4
v -0.0782412 0 -0.526591
vt -20.7319 0
vn -1 0 -0
v -0.0782412 0 -9.48361e-05
vt -0.00373371 0
vt -0.00373371 1.875
vt -20.7319 1.875
f 10/10/3 11/11/3 1/12/3 9/13/3 

usemtl BackColor
vn 1 -0 0
f 9/13/4 1/12/4 11/11/4 10/10/4 

usemtl _4
v 0 0 -4.74608e-05
vt -1.13141e-06 0
vn -0.000605504 0 1
v 0.0783822 0 -0
vt 3.08591 0
vt 3.08591 1.875
vt -1.13141e-06 1.875
vt -3.08036 1.875
vt -3.08036 0
f 12/14/5 13/15/5 4/16/5 2/17/5 1/18/5 11/19/5 

vt -3.08592 0
vn 0 -1 -0
v 0 0 -9.48361e-05
vt 3.08036 0.00373371
vt 3.08036 20.7319
v -0.157197 0 -0.526591
vt 6.18884 20.7319
v 3.68033e-05 0 -0.747661
vt -0.00144895 29.4355
v 0.157338 0 -0.526496
vt -6.1944 20.7282
v 0.0783822 0 -0.526496
vt -3.08592 20.7282
f 13/20/6 12/2/6 14/3/6 11/21/6 10/22/6 15/23/6 16/24/6 17/25/6 18/26/6 

usemtl BackColor
vn -0 1 0
f 18/26/7 17/25/7 16/24/7 15/23/7 10/22/7 11/21/7 14/3/7 12/2/7 13/20/7 

usemtl _4
vn 0 0 1
vt 6.1944 0
vt 6.1944 1.875
vt 3.08592 1.875
f 18/4/8 17/27/8 6/28/8 5/29/8 

usemtl BackColor
vn -0 -0 -1
f 5/29/9 6/28/9 17/27/9 18/4/9 

usemtl _4
vt 23.9863 1.875
vn 0.814906 -3.43126e-17 -0.579593
vt 13.3013 1.875
vt 13.3013 5.85434e-16
vt 23.9863 5.85434e-16
f 7/30/10 6/31/10 17/32/10 16/33/10 

usemtl BackColor
vn -0.814906 3.43126e-17 0.579593
f 16/33/11 17/32/11 6/31/11 7/30/11 

usemtl _4
vt -13.3076 1.875
vn -0.814906 0 -0.579593
vt -23.988 1.875
vt -23.988 0
vt -13.3076 0
f 8/34/12 7/35/12 16/36/12 15/37/12 

usemtl BackColor
vn 0.814906 -0 0.579593
f 15/37/13 16/36/13 7/35/13 8/34/13 

usemtl _4
vt -6.18884 0
vt -6.18884 1.875
f 15/38/8 10/19/8 9/18/8 8/39/8 

usemtl BackColor
f 8/39/9 9/18/9 10/19/9 15/38/9 

usemtl _4
vt 0 0
vn 1 0 -0
vt 20.7282 0
vt 20.7282 1.875
vt 0 1.875
f 13/40/14 18/41/14 5/42/14 4/43/14 

usemtl BackColor
vn -1 -0 0
f 4/43/15 5/42/15 18/41/15 13/40/15 

vn 0.000605504 -0 -1
f 11/19/16 1/18/16 2/17/16 4/16/16 13/15/16 12/14/16 

usemtl _4
v 0 0.047625 -0
f 19/40/1 4/4/1 2/2/1

usemtl BackColor
f 2/2/2 4/4/2 19/40/2

usemtl _4
f 4/4/1 2/2/1 19/40/1

usemtl BackColor
f 19/40/2 2/2/2 4/4/2

usemtl _4
v 0 0 -0
f 20/40/6 12/2/6 13/20/6

usemtl BackColor
f 13/20/7 12/2/7 20/40/7

usemtl _4
f 11/21/6 14/3/6 12/2/6

usemtl BackColor
f 12/2/7 14/3/7 11/21/7

g Mesh2 Model

l 18 13

l 18 17

l 18 5

l 5 6

l 5 4

l 4 19

l 13 4

l 13 20

l 13 12

l 12 11

l 11 14

l 10 11

l 10 15

l 10 9

l 9 1

l 9 8

l 7 8

l 7 6

l 16 7

l 16 17

l 16 15

l 15 8

l 17 6

l 1 3

l 11 1

l 1 2

l 2 4

