# Alias OBJ Model File
# Exported from SketchUp, (c) 2000-2012 Trimble Navigation Limited
# File units = meters

mtllib blue_arrow.mtl

g Mesh1 Model

usemtl _4
v -0.0782412 0.047625 -9.48361e-05
vt -3.08036 0.00373371
vn 0 1 -0
v 0 0.047625 -4.74608e-05
vt 0 0.00186853
v 0 0.047625 -9.48361e-05
vt 0 0.00373371
f 1/1/1 2/2/1 3/3/1

v 0 0 -4.74608e-05
vt -1.13141e-06 0
vn -0.000605504 0 1
v 0.0783822 0 -0
vt 3.08591 0
v 0.0783822 0.047625 -0
vt 3.08591 1.875
vt -1.13141e-06 1.875
vt -3.08036 1.875
v -0.0782412 0 -9.48361e-05
vt -3.08036 0
f 4/4/2 5/5/2 6/6/2 2/7/2 1/8/2 7/9/2 

vt -3.08592 0
vn 0 -1 -0
v 0 0 -9.48361e-05
vt 3.08036 0.00373371
v -0.0782412 0 -0.526591
vt 3.08036 20.7319
v -0.157197 0 -0.526591
vt 6.18884 20.7319
v 3.68033e-05 0 -0.747661
vt -0.00144895 29.4355
v 0.157338 0 -0.526496
vt -6.1944 20.7282
v 0.0783822 0 -0.526496
vt -3.08592 20.7282
f 5/10/3 4/2/3 8/3/3 7/11/3 9/12/3 10/13/3 11/14/3 12/15/3 13/16/3 

v 0 0 -0
vt 0 0
f 14/17/3 4/2/3 5/10/3

f 7/11/3 8/3/3 4/2/3

vt -20.7319 0
vn -1 0 -0
vt -0.00373371 0
vt -0.00373371 1.875
v -0.0782412 0.047625 -0.526591
vt -20.7319 1.875
f 9/18/4 7/19/4 1/20/4 15/21/4 

vt 3.08592 0
v 0.0783822 0.047625 -0.526496
vt 3.08592 20.7282
v 0.157338 0.047625 -0.526496
vt 6.1944 20.7282
v 3.68033e-05 0.047625 -0.747661
vt 0.00144895 29.4355
v -0.157197 0.047625 -0.526591
vt -6.18884 20.7319
vt -3.08036 20.7319
f 3/3/1 2/2/1 6/22/1 16/23/1 17/24/1 18/25/1 19/26/1 15/27/1 1/1/1 

v 0 0.047625 -0
f 20/17/1 6/22/1 2/2/1

f 6/22/1 2/2/1 20/17/1

vn 1 0 -0
vt 20.7282 0
vt 20.7282 1.875
vt 0 1.875
f 5/17/5 13/28/5 16/29/5 6/30/5 

vn 0 0 1
vt 6.1944 0
vt 6.1944 1.875
vt 3.08592 1.875
f 13/22/6 12/31/6 17/32/6 16/33/6 

vt 23.9863 1.875
vn 0.814906 -3.43126e-17 -0.579593
vt 13.3013 1.875
vt 13.3013 5.85434e-16
vt 23.9863 5.85434e-16
f 18/34/7 17/35/7 12/36/7 11/37/7 

vt -13.3076 1.875
vn -0.814906 0 -0.579593
vt -23.988 1.875
vt -23.988 0
vt -13.3076 0
f 19/38/8 18/39/8 11/40/8 10/41/8 

vt -6.18884 0
vt -6.18884 1.875
f 10/42/6 9/9/6 15/8/6 19/43/6 

g Mesh2 Model

l 13 5

l 13 12

l 13 16

l 16 17

l 16 6

l 6 20

l 5 6

l 5 14

l 5 4

l 4 7

l 7 8

l 9 7

l 9 10

l 9 15

l 15 1

l 15 19

l 18 19

l 18 17

l 11 18

l 11 12

l 11 10

l 10 19

l 12 17

l 1 3

l 7 1

l 1 2

l 2 6

