# Alias OBJ Model File
# Exported from SketchUp, (c) 2000-2012 Trimble Navigation Limited
# File units = meters

mtllib blue_arrow.mtl

g Mesh1 Model

usemtl Translucent_Glass_Tinted
v -0.0782412 0.047625 -9.48361e-05
vt -0.128348 0.000155571
vn 0 1 -0
v 0 0.047625 -4.74608e-05
vt 0 7.78556e-05
v 0 0.047625 -9.48361e-05
vt 0 0.000155571
f 1/1/1 2/2/1 3/3/1

v 0 0 -4.74608e-05
vt -4.71419e-08 0
vn -0.000605504 0 1
v 0.0783822 0 -0
vt 0.12858 0
v 0.0783822 0.047625 -0
vt 0.12858 0.078125
vt -4.71419e-08 0.078125
vt -0.128348 0.078125
v -0.0782412 0 -9.48361e-05
vt -0.128348 0
f 4/4/2 5/5/2 6/6/2 2/7/2 1/8/2 7/9/2 

vt -0.12858 0
vn 0 -1 -0
v 0 0 -9.48361e-05
vt 0.128348 0.000155571
v -0.0782412 0 -0.526591
vt 0.128348 0.86383
v -0.157197 0 -0.526591
vt 0.257869 0.86383
v 3.68033e-05 0 -0.747661
vt -6.03729e-05 1.22648
v 0.157338 0 -0.526496
vt -0.2581 0.863675
v 0.0783822 0 -0.526496
vt -0.12858 0.863675
f 5/10/3 4/2/3 8/3/3 7/11/3 9/12/3 10/13/3 11/14/3 12/15/3 13/16/3 

v 0 0 -0
vt 0 0
f 14/17/3 4/2/3 5/10/3

f 7/11/3 8/3/3 4/2/3

vt -0.86383 0
vn -1 0 -0
vt -0.000155571 0
vt -0.000155571 0.078125
v -0.0782412 0.047625 -0.526591
vt -0.86383 0.078125
f 9/18/4 7/19/4 1/20/4 15/21/4 

v 0.0783822 0.047625 -0.526496
vt 0.12858 0.863675
v 0.157338 0.047625 -0.526496
vt 0.2581 0.863675
v 3.68033e-05 0.047625 -0.747661
vt 6.03729e-05 1.22648
v -0.157197 0.047625 -0.526591
vt -0.257869 0.86383
vt -0.128348 0.86383
f 3/3/1 2/2/1 6/5/1 16/22/1 17/23/1 18/24/1 19/25/1 15/26/1 1/1/1 

v 0 0.047625 -0
f 20/17/1 6/5/1 2/2/1

f 6/5/1 2/2/1 20/17/1

vn 1 0 -0
vt 0.863675 0
vt 0.863675 0.078125
vt 0 0.078125
f 5/17/5 13/27/5 16/28/5 6/29/5 

vn 0 0 1
vt 0.2581 0
vt 0.2581 0.078125
f 13/5/6 12/30/6 17/31/6 16/6/6 

vt 0.999429 0.078125
vn 0.814906 -3.43126e-17 -0.579593
vt 0.554221 0.078125
vt 0.554221 2.43931e-17
vt 0.999429 2.43931e-17
f 18/32/7 17/33/7 12/34/7 11/35/7 

vt -0.554482 0.078125
vn -0.814906 0 -0.579593
vt -0.999499 0.078125
vt -0.999499 0
vt -0.554482 0
f 19/36/8 18/37/8 11/38/8 10/39/8 

vt -0.257869 0
vt -0.257869 0.078125
f 10/40/6 9/9/6 15/8/6 19/41/6 

