# Alias OBJ Model File
# Exported from SketchUp, (c) 2000-2012 Trimble Navigation Limited
# File units = meters

mtllib green_arrow.mtl

g Mesh1 Model

usemtl _Wax_02_1
v -0.0782412 0.047625 -9.48361e-05
vt -0.0855656 0.000103714
vn 0 1 -0
v 0 0.047625 -4.74608e-05
vt 0 5.19037e-05
v 0 0.047625 -9.48361e-05
vt 0 0.000103714
f 1/1/1 2/2/1 3/3/1

v 0 0 -4.74608e-05
vt -3.14279e-08 0
vn -0.000605504 0 1
v 0.0783822 0 -0
vt 0.0857199 0
v 0.0783822 0.047625 -0
vt 0.0857199 0.0520833
vt -3.14279e-08 0.0520833
vt -0.0855657 0.0520833
v -0.0782412 0 -9.48361e-05
vt -0.0855657 0
f 4/4/2 5/5/2 6/6/2 2/7/2 1/8/2 7/9/2 

vt -0.0857199 0
vn 0 -1 -0
v 0 0 -9.48361e-05
vt 0.0855656 0.000103714
v -0.0782412 0 -0.526591
vt 0.0855656 0.575887
v -0.157197 0 -0.526591
vt 0.171912 0.575887
v 3.68033e-05 0 -0.747661
vt -4.02486e-05 0.817652
v 0.157338 0 -0.526496
vt -0.172067 0.575783
v 0.0783822 0 -0.526496
vt -0.0857199 0.575783
f 5/10/3 4/2/3 8/3/3 7/11/3 9/12/3 10/13/3 11/14/3 12/15/3 13/16/3 

v 0 0 -0
vt 0 0
f 14/17/3 4/2/3 5/10/3

f 7/11/3 8/3/3 4/2/3

vt -0.575887 0
vn -1 0 -0
vt -0.000103714 0
vt -0.000103714 0.0520833
v -0.0782412 0.047625 -0.526591
vt -0.575887 0.0520833
f 9/18/4 7/19/4 1/20/4 15/21/4 

v 0.0783822 0.047625 -0.526496
vt 0.0857199 0.575783
v 0.157338 0.047625 -0.526496
vt 0.172067 0.575783
v 3.68033e-05 0.047625 -0.747661
vt 4.02486e-05 0.817652
v -0.157197 0.047625 -0.526591
vt -0.171912 0.575887
vt -0.0855656 0.575887
f 3/3/1 2/2/1 6/5/1 16/22/1 17/23/1 18/24/1 19/25/1 15/26/1 1/1/1 

v 0 0.047625 -0
f 20/17/1 6/5/1 2/2/1

f 6/5/1 2/2/1 20/17/1

vn 1 0 -0
vt 0.575783 0
vt 0.575783 0.0520833
vt 0 0.0520833
f 5/17/5 13/27/5 16/28/5 6/29/5 

vn 0 0 1
vt 0.172067 0
vt 0.172067 0.0520833
f 13/5/6 12/30/6 17/31/6 16/6/6 

vt 0.666286 0.0520833
vn 0.814906 -3.43126e-17 -0.579593
vt 0.369481 0.0520833
vt 0.369481 1.62621e-17
vt 0.666286 1.62621e-17
f 18/32/7 17/33/7 12/34/7 11/35/7 

vt -0.369655 0.0520833
vn -0.814906 0 -0.579593
vt -0.666333 0.0520833
vt -0.666333 0
vt -0.369655 0
f 19/36/8 18/37/8 11/38/8 10/39/8 

vt -0.171912 0
vt -0.0855656 0
vt -0.0855656 0.0520833
vt -0.171912 0.0520833
f 10/40/6 9/41/6 15/42/6 19/43/6 

